<?xml version="1.0" encoding="UTF-8" standalone="no"?>
<!-- Created with Inkscape (http://www.inkscape.org/) -->

<svg
   version="1.1"
   id="svg2"
   xml:space="preserve"
   width="44"
   height="150"
   viewBox="0 0 44 150"
   sodipodi:docname="logo_left.svg"
   inkscape:version="1.4 (e7c3feb100, 2024-10-09)"
   xmlns:inkscape="http://www.inkscape.org/namespaces/inkscape"
   xmlns:sodipodi="http://sodipodi.sourceforge.net/DTD/sodipodi-0.dtd"
   xmlns="http://www.w3.org/2000/svg"
   xmlns:svg="http://www.w3.org/2000/svg"><defs
     id="defs6" /><sodipodi:namedview
     id="namedview4"
     pagecolor="#ffffff"
     bordercolor="#666666"
     borderopacity="1.0"
     inkscape:pageshadow="2"
     inkscape:pageopacity="0.0"
     inkscape:pagecheckerboard="0"
     showgrid="false"
     inkscape:zoom="5.1733333"
     inkscape:cx="21.842784"
     inkscape:cy="75"
     inkscape:window-width="2496"
     inkscape:window-height="1363"
     inkscape:window-x="0"
     inkscape:window-y="0"
     inkscape:window-maximized="1"
     inkscape:current-layer="g10"
     inkscape:showpageshadow="2"
     inkscape:deskcolor="#d1d1d1" /><g
     id="g8"
     inkscape:groupmode="layer"
     inkscape:label="fh_aachen_logo"
     transform="matrix(1.3333333,0,0,1.3333333,0,3.75e-6)"><g
       id="g10"
       transform="rotate(180,17.0115,56.25)"><path
         d="M 20.941,0.75 H 33.273 V 37.746 H 20.941 Z"
         style="fill:#00b5ad;fill-opacity:1;fill-rule:nonzero;stroke:none"
         id="path12" /><path
         d="m 20.941,37.746 h 12.332 v 37 H 20.941 Z"
         style="fill:#ffffff;fill-opacity:1;fill-rule:nonzero;stroke:none"
         id="path14" /><path
         d="m 20.941,74.746 h 12.332 v 36.996 H 20.941 Z"
         style="fill:#1d1d1d;fill-opacity:1;fill-rule:nonzero;stroke:none"
         id="path16" /><path
         d="m 9.808,111.746 c 1.747,0 1.141,-2.602 2.426,-2.602 0.481,0 0.906,0.332 0.906,1.168 0,0.437 -0.093,0.809 -0.257,1.191 l 0.398,0.082 c 0.168,-0.355 0.27,-0.8 0.27,-1.293 0,-1.085 -0.579,-1.57 -1.34,-1.57 -1.668,0 -1.074,2.594 -2.43,2.594 -0.652,0 -1.047,-0.41 -1.047,-1.215 0,-0.531 0.137,-0.965 0.391,-1.355 l -0.418,-0.079 c -0.235,0.383 -0.391,0.856 -0.391,1.434 0.004,1.078 0.571,1.645 1.492,1.645 m -0.976,-6.551 h 2.043 v 2.219 h 0.379 v -2.219 h 1.797 v 2.562 l 0.421,-0.019 v -2.981 H 8.414 v 3.102 l 0.418,0.019 z m 4.476,-1.406 c 0.129,-0.266 0.243,-0.758 0.243,-1.184 0,-1.469 -0.782,-2.129 -2.555,-2.129 -1.863,0 -2.676,0.648 -2.676,2.117 0,0.453 0.141,0.918 0.305,1.219 l 0.383,-0.074 c -0.164,-0.301 -0.266,-0.668 -0.266,-1.09 0,-1.168 0.539,-1.715 2.254,-1.715 1.605,0 2.129,0.539 2.129,1.691 0,0.418 -0.098,0.825 -0.227,1.102 z M 8.414,99.406 h 5.055 V 99.007 L 9.742,99.015 9.203,99.031 9.195,99.015 9.656,98.718 13.469,96.191 V 95.749 H 8.414 v 0.407 h 3.816 l 0.547,-0.008 0.008,0.016 -0.461,0.296 -3.91,2.618 z m 0.418,-7.301 h 2.043 v 2.219 h 0.379 v -2.219 h 1.797 v 2.562 l 0.421,-0.019 V 91.667 H 8.414 v 3.102 l 0.418,0.02 z M 8.414,90.351 h 5.055 V 89.906 H 8.414 Z m 4.894,-1.461 c 0.129,-0.266 0.243,-0.758 0.243,-1.183 0,-1.469 -0.782,-2.129 -2.555,-2.129 -1.863,0 -2.676,0.648 -2.676,2.117 0,0.453 0.141,0.918 0.305,1.222 L 9.008,88.843 C 8.844,88.539 8.742,88.175 8.742,87.749 c 0,-1.168 0.539,-1.714 2.254,-1.714 1.605,0 2.129,0.543 2.129,1.695 0,0.418 -0.098,0.82 -0.227,1.098 z m -3.5,-4.09 c 1.747,0 1.141,-2.601 2.426,-2.601 0.481,0 0.906,0.328 0.906,1.164 0,0.441 -0.093,0.812 -0.257,1.195 l 0.398,0.082 c 0.168,-0.359 0.27,-0.805 0.27,-1.297 0,-1.086 -0.579,-1.57 -1.34,-1.57 -1.668,0 -1.074,2.598 -2.43,2.598 -0.652,0 -1.047,-0.414 -1.047,-1.215 0,-0.532 0.137,-0.965 0.391,-1.356 L 8.707,81.718 C 8.472,82.105 8.316,82.578 8.316,83.156 8.32,84.234 8.887,84.8 9.808,84.8 m 1.153,-6.426 C 9.289,78.374 8.84,77.82 8.84,76.71 v -1.203 h 4.199 v 1.196 c 0,1.171 -0.481,1.671 -2.078,1.671 m 0,0.465 c 1.793,0 2.508,-0.632 2.508,-2.125 V 75.062 H 8.414 v 1.66 c 0,1.438 0.703,2.117 2.547,2.117 M 8.832,71.417 h 2.043 v 2.219 h 0.379 v -2.219 h 1.797 v 2.563 l 0.421,-0.02 V 70.976 H 8.414 v 3.105 l 0.418,0.02 z M 8.414,69.664 h 5.055 v -0.45 H 8.414 Z m 0.43,-3.879 h 4.625 V 65.339 H 8.414 v 2.934 l 0.43,0.019 z m 3.125,-1.86 c -0.86,0 -1.129,-0.406 -1.129,-1.195 v -1.164 h 2.23 v 1.164 c 0,0.809 -0.293,1.195 -1.101,1.195 m 0,0.453 c 1.054,0 1.5,-0.5 1.5,-1.648 V 61.121 H 8.414 v 0.445 h 2.043 v 1.164 c 0,1.16 0.492,1.648 1.512,1.648 m 0,-4.671 c -0.86,0 -1.129,-0.407 -1.129,-1.196 v -1.168 h 2.23 v 1.168 c 0,0.809 -0.293,1.196 -1.101,1.196 m 0,0.449 c 1.054,0 1.5,-0.5 1.5,-1.645 V 56.898 H 8.414 v 0.445 h 2.043 v 1.168 c 0,1.16 0.492,1.645 1.512,1.645 m 1.171,-6.325 v 0.024 l -0.519,0.168 -2.473,0.883 v -2.145 l 2.473,0.895 z m -4.726,1.696 v 0.496 l 5.055,-1.922 V 53.578 L 8.414,51.656 v 0.476 l 1.336,0.481 v 2.437 z m 4.625,-6.332 0.43,-0.016 v -2.98 H 8.414 v 0.445 h 2.391 v 2.145 h 0.406 v -2.145 h 1.828 z m -2.098,-4.539 c -1.699,0 -2.191,-0.438 -2.191,-1.551 0,-1.121 0.492,-1.566 2.191,-1.566 1.707,0 2.184,0.445 2.184,1.558 0,1.121 -0.477,1.559 -2.184,1.559 m 0,0.457 c 1.875,0 2.61,-0.547 2.61,-2.016 0,-1.465 -0.735,-2.016 -2.61,-2.016 -1.875,0 -2.621,0.559 -2.621,2.016 0,1.469 0.742,2.016 2.621,2.016 M 13.469,34.367 10.187,36.16 H 8.414 v 0.449 h 1.773 l 3.282,1.773 v -0.496 l -2.368,-1.25 -0.48,-0.234 v -0.02 l 0.48,-0.242 2.368,-1.254 z m -0.43,-0.524 0.43,-0.004 v -3.601 l -0.43,-0.016 v 1.586 H 8.414 v 0.445 h 4.625 z M 8.414,29.402 h 5.055 V 28.957 H 8.414 Z m 1.394,-1.371 c 1.747,0 1.141,-2.606 2.426,-2.606 0.481,0 0.906,0.332 0.906,1.172 0,0.438 -0.093,0.809 -0.257,1.192 l 0.398,0.082 c 0.168,-0.36 0.27,-0.805 0.27,-1.297 0,-1.086 -0.579,-1.571 -1.34,-1.571 -1.668,0 -1.074,2.598 -2.43,2.598 -0.652,0 -1.047,-0.414 -1.047,-1.215 0,-0.531 0.137,-0.965 0.391,-1.355 L 8.707,24.949 c -0.235,0.382 -0.391,0.855 -0.391,1.437 0.004,1.078 0.571,1.645 1.492,1.645 m 2.274,-4.453 c -0.735,0 -1.031,-0.332 -1.031,-1.067 v -1.152 h 2.019 v 1.191 c 0,0.707 -0.281,1.028 -0.988,1.028 m 0.019,0.457 c 0.922,0 1.368,-0.465 1.368,-1.485 V 20.914 H 8.414 v 0.445 h 2.273 v 1.172 l -2.273,1.293 v 0.539 l 2.351,-1.406 c 0.082,0.699 0.516,1.078 1.336,1.078 M 8.832,17.331 h 2.043 v 2.219 h 0.379 v -2.219 h 1.797 v 2.563 l 0.421,-0.02 v -2.98 H 8.414 v 3.102 l 0.418,0.019 z M 13.469,15.605 9.351,14.164 8.84,13.992 v -0.02 l 0.519,-0.168 4.113,-1.445 V 11.867 L 8.414,13.71 v 0.52 l 5.058,1.84 V 15.605 Z M 8.414,11.011 h 5.055 V 10.566 H 8.414 Z m 0,-1.707 h 5.055 V 8.906 L 9.742,8.917 9.203,8.929 9.195,8.917 9.656,8.621 13.469,6.089 V 5.652 H 8.414 v 0.406 h 3.816 l 0.547,-0.012 0.008,0.016 -0.461,0.297 -3.91,2.617 z M 13.469,4.507 V 4.058 H 10.242 C 9.215,4.058 8.75,3.585 8.75,2.644 8.75,1.691 9.203,1.218 10.242,1.218 h 3.227 V 0.773 h -3.227 c -1.355,0 -1.922,0.691 -1.922,1.871 0,1.172 0.567,1.859 1.922,1.859 h 3.227 z"
         style="fill:#1d1d1d;fill-opacity:1;fill-rule:nonzero;stroke:none"
         id="path18"
         inkscape:transform-center-x="-2.7061856"
         inkscape:transform-center-y="0.19329897" /><path
         d="m 0.843,111.75 h 5.059 v -0.825 H 3.039 l -0.539,0.012 -0.004,-0.012 0.449,-0.3 2.957,-2.02 v -0.809 H 0.843 v 0.833 h 2.989 l 0.543,-0.008 0.008,0.015 -0.457,0.301 -3.083,2.156 z m 0.833,-7.028 h 1.398 v 1.969 H 3.84 v -1.969 h 1.218 v 2.321 l 0.844,-0.012 v -3.242 H 0.843 v 3.34 l 0.829,0.019 v -2.426 z m -0.833,-1.859 h 5.059 v -0.93 H 3.871 v -2.058 h 2.031 v -0.93 H 0.843 v 0.93 h 2.172 v 2.058 H 0.843 Z M 5.765,98.3 c 0.121,-0.285 0.223,-0.765 0.223,-1.175 0,-1.579 -0.863,-2.286 -2.574,-2.286 -1.821,0 -2.664,0.715 -2.664,2.235 0,0.437 0.121,0.914 0.281,1.246 l 0.777,-0.109 c -0.129,-0.289 -0.215,-0.625 -0.215,-1.02 0,-0.988 0.422,-1.375 1.813,-1.375 1.309,0 1.727,0.371 1.727,1.356 0,0.394 -0.079,0.761 -0.184,1.027 z m -0.547,-6 v 0.02 L 4.691,92.461 2.718,93.07 v -1.539 l 1.973,0.613 z m -4.375,1.34 v 1.047 l 5.059,-1.812 v -1.114 l -5.059,-1.8 v 0.992 l 1.086,0.336 v 2.023 z m 4.375,-6.39 v 0.023 l -0.527,0.141 -1.973,0.605 v -1.535 l 1.973,0.613 z M 0.843,88.593 V 89.64 L 5.902,87.824 V 86.711 L 0.843,84.91 v 0.996 l 1.086,0.336 v 2.019 z m 0,-6.082 H 5.902 V 81.582 H 3.871 v -2.059 h 2.031 v -0.93 H 0.843 v 0.93 h 2.172 v 2.059 H 0.843 Z m 4.196,-4.527 0.863,-0.02 v -3.23 H 0.843 v 0.93 h 2.083 v 1.929 l 0.816,0.008 v -1.937 h 1.297 z"
         style="fill:#1d1d1d;fill-opacity:1;fill-rule:nonzero;stroke:none"
         id="path20" /></g></g></svg>
